<?xml version="1.0" encoding="UTF-8" standalone="no"?>
<!DOCTYPE svg PUBLIC "-//W3C//DTD SVG 1.1//EN" "http://www.w3.org/Graphics/SVG/1.1/DTD/svg11.dtd">
<svg width="100%" height="100%" viewBox="0 0 512 512" version="1.1" xmlns="http://www.w3.org/2000/svg" xmlns:xlink="http://www.w3.org/1999/xlink" xml:space="preserve" xmlns:serif="http://www.serif.com/" style="fill-rule:evenodd;clip-rule:evenodd;stroke-linejoin:round;stroke-miterlimit:2;">
    <g>
        <g transform="matrix(1.32535,0,0,1.32535,-83.2917,-83.2926)">
            <path d="M306.767,236.092C299.567,236.092 300.953,243.822 299.398,248.484C296.823,256.215 289.543,261.464 281.394,261.464C272.505,261.464 264.748,255.217 262.854,246.532C263.55,245.987 264.179,245.362 264.727,244.668L279.217,226.138C284.762,219.046 279.537,208.363 270.552,208.363L241.569,208.363C241.568,208.363 241.568,208.363 241.567,208.363C235.534,208.363 230.569,213.328 230.569,219.361C230.569,221.817 231.392,224.204 232.905,226.138L247.397,244.668L247.397,244.67C247.921,245.338 248.52,245.945 249.183,246.477C245.567,263.321 222.226,266.655 213.973,251.577C213.09,249.958 212.447,248.219 212.066,246.415C211.648,244.447 211.946,242.293 211.288,240.395C210.367,237.839 207.927,236.125 205.21,236.125C204.093,236.125 202.995,236.415 202.023,236.965C195.248,240.93 200.232,253.444 203.177,258.482C207.749,266.264 215.399,271.765 224.232,273.624L224.231,306.989C224.232,324.422 238.577,338.767 256.01,338.767C273.444,338.767 287.789,324.422 287.789,306.989L287.789,273.624C296.622,271.766 304.272,266.265 308.844,258.482C311.885,253.281 317.907,236.092 306.767,236.092ZM256.011,325.967C245.604,325.955 237.044,317.396 237.031,306.988L237.031,273.624C244.617,272.043 251.37,267.743 256.011,261.537C260.652,267.742 267.404,272.042 274.989,273.624L274.989,306.989C274.977,317.395 266.418,325.955 256.011,325.967Z" style="fill-rule:nonzero;"/>
        </g>
        <g transform="matrix(1.32535,0,0,1.32535,-83.2917,-83.2926)">
            <path d="M425.289,101.668L360.267,67.35C351.389,62.564 340.448,63.595 332.619,69.955C330.332,71.794 328.378,74.013 326.841,76.514C317.6,72.288 307.557,70.096 297.396,70.086L214.626,70.086C204.464,70.096 194.422,72.288 185.18,76.512C183.644,74.012 181.69,71.794 179.403,69.954C171.574,63.596 160.634,62.566 151.755,67.35L86.664,101.704C65.797,113.041 61.615,140.163 63.123,161.73C63.37,165.256 63.335,169.504 66.913,171.433C68.699,172.398 70.843,172.456 72.679,171.589L80.152,168.069C78.566,177.811 78.17,191.388 83.834,204.645C84.838,206.998 87.161,208.532 89.719,208.532C90.61,208.532 91.491,208.346 92.305,207.986L98.975,205.038C102.358,216.97 111.214,240.683 132.505,265.178C133.72,266.576 135.484,267.379 137.335,267.379C140.223,267.379 142.769,265.425 143.516,262.636L143.645,262.157C143.287,279.959 120.522,289.637 120.305,289.728C117.906,290.71 116.33,293.057 116.33,295.649C116.33,296.57 116.528,297.479 116.912,298.316C117.285,299.129 125.245,316.041 142.244,321.152C139.235,336.361 136.347,373.152 169.124,402.872C171.687,405.195 175.693,405.043 178.071,402.532L198.409,381.044C203.89,395.65 217.89,421.878 252.346,446.46C252.438,446.526 252.546,446.546 252.64,446.606C253.017,446.847 253.418,447.048 253.837,447.204C254.005,447.267 254.167,447.339 254.338,447.387C254.888,447.548 255.456,447.635 256.029,447.646L256.099,447.646C256.672,447.635 257.24,447.548 257.79,447.387C257.961,447.339 258.121,447.267 258.289,447.205C258.709,447.048 259.111,446.848 259.488,446.606C259.582,446.546 259.689,446.525 259.781,446.46C294.237,421.878 308.237,395.65 313.72,381.044L334.058,402.532C336.436,405.044 340.443,405.197 343.005,402.872C375.799,373.136 372.891,336.32 369.879,321.127C386.811,315.982 394.738,299.128 395.111,298.316C395.492,297.481 395.689,296.574 395.689,295.656C395.689,293.069 394.122,290.724 391.731,289.733C391.5,289.637 368.745,279.962 368.38,262.166L368.506,262.636C369.253,265.425 371.8,267.379 374.687,267.379C376.539,267.379 378.302,266.576 379.517,265.178C400.807,240.683 409.664,216.97 413.047,205.039L419.716,207.986C420.53,208.346 421.412,208.532 422.302,208.532C424.861,208.532 427.184,206.998 428.189,204.645C433.853,191.387 433.456,177.811 431.87,168.069L439.344,171.589C441.18,172.455 443.323,172.397 445.109,171.432C448.391,169.664 448.543,166.154 448.809,162.919C449.138,158.858 449.234,154.782 449.096,150.71C448.714,139.129 446.568,127.13 440.711,116.988C437.082,110.558 431.744,105.255 425.289,101.668ZM134.417,247.14C114.014,219.635 109.78,195.318 109.737,195.059C109.422,193.102 108.215,191.399 106.473,190.452C104.728,189.519 102.648,189.434 100.833,190.222L93.514,193.457C89.028,176.088 95.592,159.035 95.662,158.858C95.964,158.104 96.119,157.298 96.119,156.485C96.119,152.974 93.23,150.085 89.719,150.085C88.775,150.085 87.844,150.294 86.991,150.696L75.686,156.023C75.431,143.529 77.306,121.354 92.706,112.987L157.73,78.668C159.536,77.715 161.547,77.217 163.589,77.217C170.475,77.217 176.142,82.884 176.142,89.77C176.142,90.867 175.998,91.959 175.714,93.018L175.714,93.02L134.417,247.14ZM380.247,298.204C376.79,302.881 370.543,309.099 361.482,309.757C358.156,309.993 355.545,312.795 355.545,316.129C355.545,317.136 355.783,318.129 356.24,319.026C357.986,325.091 366.404,359.96 338.885,389.01L315.368,364.163C314.159,362.888 312.477,362.164 310.72,362.164C307.584,362.164 304.887,364.469 304.398,367.566C304.343,367.91 298.615,401.328 256.064,433.309C213.846,401.553 207.784,367.886 207.73,367.567C207.241,364.469 204.544,362.164 201.408,362.164C199.651,362.164 197.969,362.887 196.76,364.163L173.242,389.01C143.688,357.812 155.586,319.883 156.152,318.151C156.168,318.103 156.169,318.054 156.184,318.006C156.249,317.775 156.301,317.541 156.341,317.305C156.376,317.116 156.418,316.929 156.436,316.74C156.441,316.693 156.456,316.651 156.46,316.604C156.47,316.455 156.447,316.314 156.448,316.166C156.454,315.932 156.447,315.698 156.427,315.465C156.406,315.26 156.361,315.065 156.321,314.866C156.279,314.661 156.241,314.458 156.179,314.258C156.113,314.057 156.036,313.859 155.949,313.665C155.872,313.482 155.799,313.299 155.705,313.124C155.606,312.941 155.491,312.771 155.375,312.599C155.261,312.428 155.15,312.257 155.02,312.098C154.893,311.943 154.752,311.804 154.611,311.662C154.466,311.508 154.313,311.362 154.153,311.224C153.993,311.091 153.82,310.978 153.647,310.861C153.479,310.747 153.315,310.631 153.134,310.532C152.927,310.426 152.716,310.331 152.499,310.247C152.363,310.191 152.241,310.115 152.099,310.067C152.054,310.052 152.008,310.051 151.963,310.037C151.538,309.931 151.109,309.845 150.676,309.78C150.629,309.776 150.587,309.76 150.54,309.756C141.57,309.105 135.293,302.866 131.802,298.186C141.013,292.796 156.476,280.893 156.476,261.743L156.476,214.265L188.076,96.334C188.732,93.897 189.028,91.377 188.955,88.855C196.942,84.927 205.724,82.885 214.624,82.885L297.394,82.885C306.294,82.885 315.077,84.927 323.063,88.854C322.99,91.376 323.286,93.896 323.943,96.332L355.544,214.271L355.544,261.743C355.546,280.915 371.041,292.823 380.247,298.204L380.247,298.204ZM436.316,156.013L425.03,150.696C424.177,150.294 423.245,150.086 422.302,150.086C418.791,150.086 415.902,152.975 415.902,156.486C415.902,157.298 416.057,158.104 416.358,158.859C416.433,159.048 423.054,176.001 418.513,193.459L411.191,190.223C410.376,189.862 409.495,189.676 408.603,189.676C405.475,189.676 402.782,191.97 402.285,195.059C402.241,195.328 398.137,219.515 377.605,247.146L336.307,93.02C333.523,82.63 344.751,73.633 354.292,78.668L419.247,112.951C434.63,121.309 436.544,143.507 436.316,156.014L436.316,156.013Z" style="fill-rule:nonzero;"/>
        </g>
        <g transform="matrix(1.32535,0,0,1.32535,-83.2917,-83.2926)">
            <path d="M219.936,172.967L219.936,162.828C219.936,154.928 213.435,148.428 205.536,148.428C197.636,148.428 191.136,154.928 191.136,162.828L191.136,172.967C191.136,180.866 197.636,187.367 205.536,187.367C213.435,187.367 219.936,180.866 219.936,172.967Z" style="fill-rule:nonzero;"/>
        </g>
        <g transform="matrix(1.32535,0,0,1.32535,-83.2917,-83.2926)">
            <path d="M306.586,148.428C298.689,148.437 292.195,154.931 292.186,162.828L292.186,172.967C292.186,180.866 298.686,187.367 306.586,187.367C314.485,187.367 320.986,180.866 320.986,172.967L320.986,162.828C320.976,154.932 314.482,148.437 306.586,148.428Z" style="fill-rule:nonzero;"/>
        </g>
    </g>
</svg>
